<?xml version="1.0" encoding="UTF-8"?>
<svg id="Layer_2" data-name="Layer 2" xmlns="http://www.w3.org/2000/svg" viewBox="0 0 613.68 298.73">
  <defs>
    <style>
      .cls-1 {
        fill: none;
        stroke: #e1c1c4;
        stroke-linecap: round;
        stroke-linejoin: round;
        stroke-width: 18px;
      }
    </style>
  </defs>
  <g id="Layer_1-2" data-name="Layer 1">
    <g>
      <path class="cls-1" d="m604.68,193.46h-31.1v-52.09l12.37,6.78c8.6,4.71,14.44,13.23,15.74,22.94l2.99,22.37Z"/>
      <g>
        <polyline class="cls-1" points="125.84 244.08 79.22 244.08 79.22 204.63"/>
        <polyline class="cls-1" points="79.22 141.37 79.22 9 445.53 9 445.53 244.08 212.72 244.08"/>
        <circle class="cls-1" cx="168.39" cy="247.18" r="42.55"/>
        <path class="cls-1" d="m479.13,244.08h-33.6v-117.54h98.09c33.73,0,61.07,27.34,61.07,61.07v56.47h-32.73"/>
        <circle class="cls-1" cx="525.1" cy="247.18" r="42.55"/>
        <polygon class="cls-1" points="567.65 126.54 445.53 126.54 445.53 43.93 525.1 56.11 567.65 126.54"/>
        <line class="cls-1" x1="262.37" y1="211.4" x2="367.17" y2="211.4"/>
        <line class="cls-1" x1="9" y1="193.46" x2="113.8" y2="193.46"/>
        <line class="cls-1" x1="106.14" y1="167.41" x2="179.9" y2="167.41"/>
      </g>
    </g>
  </g>
</svg>