<svg viewBox="0 0 317.55 298.23" xmlns="http://www.w3.org/2000/svg" id="Layer_1"><defs><style>.cls-1{fill:#e7c0c4;stroke-width:0px;}</style></defs><path d="M297.28,298.23H19.82c-4.97,0-9-4.03-9-9V9.86C10.82,4.89,14.85.86,19.82.86h277.46c4.97,0,9,4.03,9,9v279.37c0,4.97-4.03,9-9,9ZM28.82,280.23h259.46V18.86H28.82v261.37Z" class="cls-1"></path><path d="M297.28,244.49H127.87c-4.97,0-9-4.03-9-9v-122.87c0-4.97,4.03-9,9-9h169.41c4.97,0,9,4.03,9,9v122.87c0,4.97-4.03,9-9,9ZM136.87,226.49h151.41v-104.87h-151.41v104.87Z" class="cls-1"></path><path d="M127.87,298.23H19.82c-4.97,0-9-4.03-9-9V112.61c0-4.97,4.03-9,9-9h108.05c4.97,0,9,4.03,9,9v176.61c0,4.97-4.03,9-9,9ZM28.82,280.23h90.05V121.61H28.82v158.61Z" class="cls-1"></path><path d="M64.98,298.23H19.82c-4.97,0-9-4.03-9-9V112.61c0-4.97,4.03-9,9-9h45.16c4.97,0,9,4.03,9,9v176.61c0,4.97-4.03,9-9,9ZM28.82,280.23h27.16V121.61h-27.16v158.61Z" class="cls-1"></path><path d="M308.55,121.61H10.75c-4.97,0-9-4.03-9-9s4.03-9,9-9h297.8c4.97,0,9,4.03,9,9s-4.03,9-9,9Z" class="cls-1"></path><path d="M86.98,215.73c-4.97,0-9-4.03-9-9s4.02-9,9-9h0c4.97,0,9,4.03,9,9s-4.03,9-9,9Z" class="cls-1"></path><path d="M154.39,161.01c-12.51,0-23.27-11.71-27.53-30.06-1.12-4.84,1.89-9.68,6.73-10.8,4.85-1.12,9.68,1.89,10.8,6.73,2.66,11.46,7.81,16.14,10.02,16.14.02,0,.04,0,.05,0,2.52-.08,7.42-5.27,9.94-16.13,1.12-4.84,5.96-7.86,10.8-6.73,4.84,1.12,7.86,5.96,6.73,10.8-4.21,18.12-14.5,29.63-26.86,30.05-.23,0-.46.01-.69.01Z" class="cls-1"></path><path d="M191.94,161.01c-12.51,0-23.27-11.71-27.54-30.06-1.12-4.84,1.89-9.68,6.73-10.8,4.84-1.12,9.68,1.89,10.8,6.73,2.66,11.46,7.81,16.14,10.02,16.14.02,0,.04,0,.05,0,2.52-.08,7.42-5.27,9.94-16.13,1.12-4.84,5.96-7.86,10.8-6.73,4.84,1.12,7.86,5.96,6.73,10.8-4.21,18.12-14.5,29.63-26.86,30.05-.23,0-.46.01-.69.01Z" class="cls-1"></path><path d="M229.49,161.01c-12.51,0-23.27-11.71-27.54-30.06-1.12-4.84,1.89-9.68,6.73-10.8,4.85-1.12,9.68,1.89,10.8,6.73,2.66,11.46,7.81,16.14,10.02,16.14.02,0,.04,0,.05,0,2.52-.08,7.42-5.27,9.94-16.13,1.12-4.84,5.95-7.86,10.8-6.73,4.84,1.12,7.85,5.96,6.73,10.8-4.21,18.12-14.5,29.63-26.86,30.05-.23,0-.46.01-.69.01Z" class="cls-1"></path><path d="M267.04,161.01c-12.51,0-23.27-11.71-27.54-30.06-1.12-4.84,1.89-9.68,6.73-10.8,4.84-1.12,9.68,1.89,10.8,6.73,2.66,11.46,7.81,16.14,10.02,16.14.02,0,.04,0,.05,0,2.52-.08,7.42-5.27,9.94-16.13,1.12-4.84,5.95-7.86,10.8-6.73,4.84,1.12,7.85,5.96,6.73,10.8-4.21,18.12-14.5,29.63-26.86,30.05-.23,0-.46.01-.69.01Z" class="cls-1"></path><rect height="33.53" width="166.64" y="112.61" x="130.63" class="cls-1"></rect><g id="X2tHsu"><path d="M166.19,59.27c-.2-.15-.39-.3-.58-.44-.98-.76-1.91-1.58-2.78-2.46-.71-.72-1.38-1.47-1.97-2.29-.36-.5-.69-1.01-.94-1.57-.19-.41-.32-.84-.39-1.29-.1-.68-.05-1.34.25-1.96.41-.86,1.1-1.38,2.03-1.57.69-.14,1.35-.04,1.99.23.66.28,1.22.71,1.7,1.25.26.3.49.62.67.97,0,.01.02.03.03.05.02-.03.03-.06.05-.08.56-1.04,1.38-1.8,2.48-2.24.5-.2,1.02-.28,1.55-.23,1.27.12,2.23.96,2.54,2.15.14.55.13,1.1.01,1.65-.14.65-.4,1.25-.75,1.81-.43.71-.94,1.37-1.48,2-.73.84-1.53,1.62-2.36,2.36-.63.56-1.28,1.09-1.96,1.59-.02.02-.05.04-.08.06Z" class="cls-1"></path></g><path d="M170.88,45.93s5.2-10.18,11.53-8.9c6.33,1.28,6.03,6.14,6.03,6.14,0,0,.79,2.49-1.85,7.05,0,0-1.1,3.48,1.96,7.36,3.06,3.88-.29,6.76-.29,6.76,0,0-6.22,5.08-17.39-6.19,0,0,3.38-1.78,4.45-6.95s-4.45-5.28-4.45-5.28Z" class="cls-1"></path><path d="M161.4,45.93s-5.2-10.18-11.53-8.9c-6.33,1.28-6.03,6.14-6.03,6.14,0,0-.79,2.49,1.85,7.05,0,0,1.1,3.48-1.96,7.36-3.06,3.88.29,6.76.29,6.76,0,0,6.22,5.08,17.39-6.19,0,0-3.38-1.78-4.45-6.95-1.07-5.17,4.45-5.28,4.45-5.28Z" class="cls-1"></path><path d="M162.31,58.9s-13.37,14.93-15.86,22.18c-.11.32.22.61.52.46.81-.41,2.2-.99,3.91-1.28,1.46-.25,2.95-.14,4.37.28.86.26,1.82.63,2.38,1.12,1.23,1.07,2.02-.91,2.02-.91,0,0,7.34-11.88,5.22-19.97l-2.57-1.89Z" class="cls-1"></path><path d="M170.13,58.9s13.18,14.72,15.8,22.03c.13.37-.26.72-.61.55-1-.48-2.72-1.16-4.78-1.34-.91-.08-1.83.01-2.72.24-.99.25-2.3.68-3.02,1.29-1.23,1.07-2.02-.91-2.02-.91,0,0-7.34-11.88-5.22-19.97l2.57-1.89Z" class="cls-1"></path></svg>