<?xml version="1.0" encoding="UTF-8"?>
<svg id="Layer_2" data-name="Layer 2" xmlns="http://www.w3.org/2000/svg" viewBox="0 0 447.03 295.84">
  <defs>
    <style>
      .cls-1 {
        fill: none;
      }

      .cls-2 {
        fill: #e1c1c4;
      }
    </style>
  </defs>
  <g id="Layer_1-2" data-name="Layer 1">
    <g>
      <g>
        <rect class="cls-1" x="11.82" y="11.81" width="423.4" height="272.21"/>
        <path class="cls-2" d="m435.22,295.84H11.82C5.29,295.84,0,290.55,0,284.03V11.81C0,5.29,5.29,0,11.82,0h423.4c6.52,0,11.81,5.29,11.81,11.81v272.22c0,6.52-5.29,11.81-11.81,11.81Zm-411.59-23.63h399.78V23.63H23.63v248.59Z"/>
      </g>
      <g>
        <polygon class="cls-1" points="223.52 170.99 435.22 11.81 11.82 11.81 223.52 170.99"/>
        <path class="cls-2" d="m223.52,182.81c-2.5,0-5-.79-7.1-2.37L4.72,21.26C.65,18.2-1,12.89.61,8.07,2.22,3.25,6.73,0,11.82,0h423.4c5.08,0,9.6,3.25,11.21,8.07,1.61,4.82-.04,10.13-4.11,13.19l-211.7,159.18c-2.1,1.58-4.6,2.37-7.1,2.37ZM47.19,23.63l176.33,132.59L399.85,23.63H47.19Z"/>
      </g>
      <g id="X2tHsu">
        <path class="cls-2" d="m223.48,229.1c-2.05-1.55-4.05-3.04-6.02-4.57-10.05-7.86-19.61-16.28-28.6-25.34-7.31-7.36-14.2-15.1-20.28-23.53-3.67-5.09-7.06-10.36-9.64-16.11-1.91-4.26-3.33-8.66-4.02-13.28-1.04-6.95-.54-13.75,2.53-20.16,4.24-8.85,11.3-14.19,20.87-16.15,7.08-1.45,13.92-.4,20.52,2.39,6.84,2.89,12.56,7.31,17.48,12.82,2.72,3.05,5.04,6.37,6.87,10.03.08.15.17.29.32.53.19-.34.34-.6.48-.87,5.8-10.66,14.19-18.48,25.5-23.03,5.11-2.06,10.46-2.88,15.96-2.36,13.05,1.23,22.98,9.88,26.09,22.15,1.43,5.65,1.32,11.32.13,17-1.4,6.7-4.15,12.84-7.67,18.66-4.43,7.33-9.63,14.08-15.24,20.53-7.54,8.67-15.71,16.7-24.3,24.31-6.48,5.74-13.16,11.23-20.13,16.37-.26.19-.52.37-.86.61Z"/>
      </g>
    </g>
  </g>
</svg>