<?xml version="1.0" encoding="utf-8"?>
<svg xmlns="http://www.w3.org/2000/svg" xmlns:xlink="http://www.w3.org/1999/xlink" version="1.1" x="0px" y="0px" viewBox="0 0 133.1061249 24" enable-background="new 0 0 133.1061249 24" height="8.5" width="47.15">
  <g id="Layer_1">
    <path fill-rule="evenodd" clip-rule="evenodd" d="M49.9768677,7.694109l-0.166584,0.1638584l-0.014019,15.978159L49.9581566,24   h4.4198303l0.163456-0.1638737l0.0124321-15.978159L54.391983,7.694109H49.9768677z M52.0692215,0.3261544l-2.9579506,2.9621434   v0.3261948l2.9579506,2.9606006h0.3316078l2.9626083-2.9606006V3.2882979l-2.9626083-2.9621434H52.0692215z M16.4415035,0   l-0.1619015,0.163837v12.4931898c0,4.4401484-2.3648081,6.5766706-5.7742157,6.5766706   c-3.3798413,0-5.7306366-2.1365223-5.7306366-6.5766706V0.163837L4.6066103,0H0.1634772L0,0.163837V13.315649   C0,20.0530796,4.2516379,24,10.5053864,24c6.196106,0,10.5520763-3.9469204,10.5520763-10.684351V0.163837L20.8955708,0H16.4415035   z M41.358326,0l-0.1665993,0.163837v15.4506741L29.8674927,0.163837L29.5374546,0h-4.4431744l-0.166563,0.163837v23.6722889   L25.0942802,24h4.41045l0.1666012-0.1638737V8.3854961L41.057869,23.8361263L41.387886,24h4.413578l0.1634712-0.1638737V0.163837   L45.8014641,0H41.358326z M63.1879959,4.8006029H66.33741c4.2812729,0,7.2298737,3.0901203,7.2298737,7.1993761   c0,4.1077194-2.9626389,7.2134514-7.2438889,7.2134514h-3.1494141L63.1879959,4.8006029z M58.5860329,0l-0.1618996,0.163837   v23.6722889L58.5860329,24h7.7373619c7.0772552,0,12.1805649-5.6543217,12.1805649-12.000021S73.40065,0,66.3233948,0H58.5860329z    M86.9885712,14.135006l2.6341705-7.7222085l2.6325073,7.7222085l0.0623245,0.2793617H86.887352L86.9885712,14.135006z    M87.3186035,0l-0.1666031,0.163837l-8.7243423,23.6722889L78.5957565,24h5.0986099l0.1681213-0.1638737l1.5116806-4.6648293   l8.5032501,0.0140305l1.5039444,4.6507988L95.54953,24h5.1000748l0.1665497-0.1638737L92.0933838,0.163837L91.9251785,0H87.3186035   z M113.2364349,0l-0.1634827,0.163837l-5.3429489,8.2075806L102.401062,0.163837L102.2375793,0h-4.61129l-0.1619415,0.163837   l7.900856,12.9879122v10.6843767L105.5333176,24h4.4088974l0.1681137-0.1638737V13.1517496L118.009697,0.163837L117.8478317,0   H113.2364349z M118.7226944,6.4127975c0,6.4065661,9.7145309,6.2442298,9.7145309,10.1896095   c0,1.64184-1.1536942,2.6312904-2.7991486,2.6312904c-1.3170853,0-2.7961273-0.6585979-3.62117-2.8607121h-0.3300781   l-3.7876663,2.5282803C119.0542831,22.1896305,122.1802826,24,125.6380768,24c4.4478302,0,7.4680481-3.4506569,7.4680481-7.3975925   c0-7.5583296-9.4421539-7.5583296-9.4421539-10.1896095c0-0.9894753,0.4935532-1.6465335,1.648674-1.6465335   c0.8173676,0,1.809021,0.4947524,2.5329056,1.4779758h0.3284607l3.5543213-2.6297472   C129.9176788,1.1517291,128.1071472,0,125.312645,0C121.6541595,0,118.7226944,2.6297166,118.7226944,6.4127975z"/>
    <g>
      <defs>
        <circle id="SVGID_1_" cx="164.3451996" cy="-201.0622559" r="10"/>
      </defs>
      <clipPath id="SVGID_2_">
        <use xlink:href="#SVGID_1_" overflow="visible"/>
      </clipPath>
      <g clip-path="url(#SVGID_2_)">
        <defs>
          <rect id="SVGID_3_" x="-465.6547852" y="-606.6177979" width="1484.444458" height="1253.333374"/>
        </defs>
        <clipPath id="SVGID_4_">
          <use xlink:href="#SVGID_3_" overflow="visible"/>
        </clipPath>
      </g>
    </g>
    <g>
      <defs>
        <polygon id="SVGID_5_" points="159.6167755,-202.6916046 162.7806702,-199.4943237 169.2289581,-205.5066986      171.0118713,-203.7057495 162.5221863,-195.7438049 157.6785431,-200.7285309"/>
      </defs>
      <clipPath id="SVGID_6_">
        <use xlink:href="#SVGID_5_" overflow="visible"/>
      </clipPath>
      <g clip-path="url(#SVGID_6_)">
        <defs>
          <rect id="SVGID_7_" x="-465.6547852" y="-606.6177979" width="1484.444458" height="1253.333374"/>
        </defs>
        <clipPath id="SVGID_8_">
          <use xlink:href="#SVGID_7_" overflow="visible"/>
        </clipPath>
      </g>
    </g>
  </g>
  <g id="Guides" display="none"/>
</svg>