<?xml version="1.0" encoding="utf-8"?>
<svg xmlns="http://www.w3.org/2000/svg" viewBox="0 0 60 13" fill="none" height="9" width="41.53">
  <path d="M57.5633 9.04478C57.3407 9.04552 57.1205 9.08522 56.9152 9.16162C56.7099 9.23802 56.5236 9.34961 56.3669 9.49002C56.2103 9.63043 56.0863 9.79688 56.0022 9.97987C55.9181 10.1629 55.8754 10.3588 55.8767 10.5564C55.8754 10.754 55.9181 10.95 56.0022 11.133C56.0863 11.3159 56.2103 11.4824 56.3669 11.6228C56.5236 11.7632 56.7099 11.8748 56.9152 11.9512C57.1205 12.0276 57.3407 12.0673 57.5633 12.068C58.4937 12.068 59.25 11.3909 59.25 10.5564C59.2512 10.3588 59.2086 10.1629 59.1245 9.97987C59.0403 9.79688 58.9164 9.63043 58.7597 9.49002C58.6031 9.34961 58.4168 9.23802 58.2115 9.16162C58.0062 9.08522 57.7859 9.04552 57.5633 9.04478ZM52.0128 7.87734C52.0128 6.73378 50.9227 5.80798 49.5778 5.80798C48.2329 5.80798 47.1427 6.73519 47.1427 7.87734C47.1427 9.01949 48.2345 9.94529 49.5794 9.94529C50.9243 9.94529 52.0128 9.01949 52.0128 7.87734ZM52.0223 3.85522H54.709V11.8981H52.0223V11.3839C51.239 11.8639 50.3096 12.1207 49.3579 12.12C46.7424 12.12 44.6222 10.2206 44.6222 7.87734C44.6222 5.53403 46.7424 3.63466 49.3579 3.63466C50.3467 3.63466 51.2629 3.9058 52.0223 4.37081V3.85522ZM30.5166 4.90325V3.85663H27.7651V11.8981H30.5229V8.14286C30.5229 6.87567 32.0545 6.19572 33.1178 6.19572H33.1494V3.85663C32.0577 3.85663 31.0561 4.27528 30.5166 4.90325ZM23.6623 7.87734C23.6623 6.73378 22.5722 5.80798 21.2273 5.80798C19.8824 5.80798 18.7922 6.73519 18.7922 7.87734C18.7922 9.01949 19.884 9.94529 21.2289 9.94529C22.5738 9.94529 23.6623 9.01949 23.6623 7.87734ZM23.6718 3.85522H26.36V11.8981H23.6718V11.3839C22.9124 11.8475 21.9962 12.12 21.0073 12.12C18.3919 12.12 16.2717 10.2206 16.2717 7.87734C16.2717 5.53403 18.3919 3.63466 21.0073 3.63466C21.9962 3.63466 22.9124 3.9058 23.6718 4.37081V3.85522ZM39.847 3.64028C38.7743 3.64028 37.7585 3.93811 37.0781 4.76136V3.85663H34.4026V11.8981H37.1113V7.67223C37.1113 6.45 38.0259 5.85013 39.1287 5.85013C40.309 5.85013 40.9894 6.48231 40.9894 7.65537V11.8981H43.6729V6.78436C43.6729 4.91308 42.0115 3.64028 39.847 3.64028ZM12.3573 11.8981H15.1705V0.27283H12.3573V11.8981ZM0 11.9009H2.97935V0.27002H0.00158212L0 11.9009ZM10.4206 0.27002C10.4206 2.78753 9.3257 5.13084 7.37322 6.87146L11.4902 11.9009H7.8115L3.33852 6.43595L4.49355 5.66047C5.43383 5.03256 6.19568 4.21808 6.71821 3.28212C7.24075 2.34616 7.50949 1.31465 7.50296 0.27002H10.4174H10.4206Z" fill="black"/>
</svg>