<?xml version="1.0" encoding="utf-8"?>
<svg xmlns="http://www.w3.org/2000/svg" fill="none" viewBox="0 0 130 32">
    <path fill-rule="evenodd" clip-rule="evenodd" d="M31.5 4.6a6.8 6.8 0 0 0-4.1-4C25.6 0 24 0 20.8 0h-9.7C8 0 6.3 0 4.6.6a6.8 6.8 0 0 0-4 4C0 6.4 0 8 0 11.2v9.7c0 3.2 0 4.8.5 6.5a6.8 6.8 0 0 0 4.1 4c1.7.6 3.3.6 6.5.6h9.7c3.3 0 4.9 0 6.6-.5a6.8 6.8 0 0 0 4-4c.6-1.8.6-3.4.6-6.6v-9.7c0-3.2 0-4.8-.5-6.6ZM23 11l-1.9 1.5h-.5a5.1 5.1 0 0 0-4-1.9c-1.8 0-3 .8-3 1.9 0 1 1 1.4 3.6 2 3.4.7 5 2.1 5 4.5 0 3-2.5 5.1-6.3 5.3l-.3 1.8c0 .2-.2.3-.4.3h-2.9a.4.4 0 0 1-.3-.5l.4-2a7.6 7.6 0 0 1-4.2-2.8.4.4 0 0 1 0-.5l2-1.5c.3-.2.5-.1.6 0 1 1.5 2.7 2.4 4.7 2.4 1.8 0 3.1-.9 3.1-2.1 0-1-.6-1.4-2.9-1.9-3.9-.8-5.4-2.3-5.4-4.6 0-2.8 2.3-4.8 5.7-5l.4-1.9c0-.2.2-.3.4-.3h2.8c.3 0 .4.2.4.5l-.4 2c1.4.4 2.7 1.3 3.4 2.3v.5Z" fill="#000"/>
    <path d="M50.5 8.2 50 8h-3c-.1 0-.3 0-.3.2L41 23.6c0 .3 0 .5.4.5h2.2c.2 0 .3 0 .4-.2l1.2-3.4H52l1.3 3.4.3.2H56c.3 0 .5-.2.4-.5L50.5 8.2ZM46.2 18l2.4-6.5L51 18h-4.8ZM71 21.7h-.8c-1 0-1.5-.1-1.5-1.1v-5.8h2c.3 0 .4-.2.4-.4v-1.7c0-.2-.1-.4-.3-.4h-2.1v-3c0-.2-.2-.4-.4-.4h-2.1c-.2 0-.4.2-.4.4v3h-4.6v-.5c0-1.3.5-1.6 1.5-1.6h.5c.2 0 .3-.1.3-.3V8c0-.2-.1-.3-.3-.3h-.8c-2.8 0-4.2 1.3-4.2 3.8v.7H57c-.2 0-.4.2-.4.4v1.7c0 .2.2.4.4.4h1.2v9c0 .1.2.3.4.3h2.2c.2 0 .4-.2.4-.4v-9h4.6v6.4c0 2.4 1.3 3.1 3.6 3.1H71c.2-.1.3-.3.3-.4V22c0-.2-.2-.3-.4-.3ZM78.2 12c-3.3 0-5.6 2.7-5.6 6.2 0 3.7 2.3 6.2 5.8 6.2 2.2 0 4-1.1 5-3 0-.2 0-.4-.3-.5l-1.8-.7c-.1 0-.3 0-.4.2-.4 1-1.4 1.5-2.5 1.5-1.7 0-2.8-1.1-3-3h7.8c.2 0 .4-.2.4-.4v-.6c0-3.2-1.9-5.8-5.4-5.8Zm-2.7 4.8c.4-1.5 1.4-2.3 2.7-2.3 1.6 0 2.4 1 2.4 2.3h-5.1ZM92.1 12.3h-.4c-1.5 0-2.7.6-3.2 1.7v-1.3c0-.2-.1-.4-.3-.4H86c-.2 0-.4.2-.4.4v11c0 .2.2.4.4.4h2.2c.2 0 .3-.2.3-.4V18c0-1.8 1.3-2.9 3-2.9h.6c.2 0 .4-.1.4-.3v-2.2c0-.2-.2-.3-.4-.3ZM100.7 12c-1.5 0-2.7.7-3.4 1.5v-.8c0-.2-.2-.4-.4-.4h-2.1c-.2 0-.4.2-.4.4v15c0 .3.2.4.4.4h2.1c.2 0 .4-.1.4-.3v-5c.7 1 1.9 1.6 3.4 1.6 3.2 0 5.1-2.8 5.1-6.2 0-3.3-1.9-6.1-5.1-6.1Zm-.7 9.8c-1.6 0-2.8-1.1-2.8-3.2v-.7c0-2.1 1.2-3.3 2.8-3.3 1.9 0 2.9 1.5 2.9 3.6 0 2.2-1 3.6-2.9 3.6ZM117.8 22c-.5-.1-.6-.3-.6-.9v-5c0-2.7-1.8-4-4.7-4-2.5 0-4.2 1.3-4.9 3.1 0 .2 0 .5.3.5l2 .4c.2 0 .4 0 .4-.2.3-.9 1-1.3 2-1.3 1.4 0 2 .6 2 1.7v.2l-3.1.6c-2.3.4-4.1 1.4-4.1 3.7 0 2.1 1.7 3.5 4 3.5 1.5 0 2.7-.5 3.5-1.3.4 1 1.4 1.3 3.2 1.1.2 0 .4-.1.4-.3v-1.5c0-.2-.2-.4-.4-.4Zm-3.5-2c0 1.3-1.3 2-2.7 2-1 0-1.6-.4-1.6-1.3 0-1 .8-1.4 1.9-1.6l2.4-.5V20ZM129.5 12.3h-2.2c-.1 0-.3.1-.3.3l-2.7 7.7-2.7-7.7c0-.2-.2-.3-.3-.3H119c-.2 0-.4.3-.3.5l4 10.9-.3 1c-.4.9-.8 1.1-1.7 1.1a6 6 0 0 1-.5 0c-.2 0-.4.2-.4.4v1.6c0 .2.1.4.3.4h.9c2.5 0 3.5-1.3 4.3-3.2l4.5-12.2c.1-.2 0-.5-.3-.5Z" fill="#000"/>
  </svg>