<svg width="36" height="27" viewBox="0 0 36 27" fill="none" xmlns="http://www.w3.org/2000/svg">
<rect x="0.4" y="0.525" width="35.2" height="25.2" rx="3.6" fill="white" stroke="black" stroke-width="0.8"/>
<mask id="mask0_1014_6455" style="mask-type:alpha" maskUnits="userSpaceOnUse" x="0" y="0" width="17" height="16">
<path d="M0.0625 4.5C0.0625 2.29086 1.85336 0.5 4.0625 0.5H14.875C15.9796 0.5 16.875 1.39543 16.875 2.5V13.1875C16.875 14.2921 15.9796 15.1875 14.875 15.1875H4.0625C1.85336 15.1875 0.0625 13.3966 0.0625 11.1875V4.5Z" fill="#D9D9D9"/>
</mask>
<g mask="url(#mask0_1014_6455)">
<rect x="8.25" y="0.5" width="0.75" height="14" fill="black"/>
<rect x="17.875" y="6.875" width="0.75" height="18.0625" transform="rotate(90 17.875 6.875)" fill="black"/>
<rect x="17.293" y="0.0896378" width="0.75" height="23.2529" transform="rotate(52.3714 17.293 0.0896378)" fill="black"/>
<rect x="1.19922" y="1.90649" width="0.75" height="21.7944" transform="rotate(-51.348 1.19922 1.90649)" fill="black"/>
</g>
<path d="M26.6875 6.5625L26.8699 7.12392H27.4602L26.9827 7.4709L27.1651 8.03233L26.6875 7.68535L26.2099 8.03233L26.3923 7.4709L25.9148 7.12392H26.5051L26.6875 6.5625Z" fill="black"/>
<path d="M31.1875 10.8125L31.3699 11.3739H31.9602L31.4827 11.7209L31.6651 12.2823L31.1875 11.9353L30.7099 12.2823L30.8923 11.7209L30.4148 11.3739H31.0051L31.1875 10.8125Z" fill="black"/>
<path d="M22.3125 11L22.4949 11.5614H23.0852L22.6077 11.9084L22.7901 12.4698L22.3125 12.1228L21.8349 12.4698L22.0173 11.9084L21.5398 11.5614H22.1301L22.3125 11Z" fill="black"/>
<path d="M27.75 14.75L27.9324 15.3114H28.5227L28.0452 15.6584L28.2276 16.2198L27.75 15.8728L27.2724 16.2198L27.4548 15.6584L26.9773 15.3114H27.5676L27.75 14.75Z" fill="black"/>
<path d="M26.6875 20.5L26.8699 21.0614H27.4602L26.9827 21.4084L27.1651 21.9698L26.6875 21.6228L26.2099 21.9698L26.3923 21.4084L25.9148 21.0614H26.5051L26.6875 20.5Z" fill="black"/>
<path d="M8.8125 20.125L8.99492 20.6864H9.58523L9.10766 21.0334L9.29008 21.5948L8.8125 21.2478L8.33492 21.5948L8.51734 21.0334L8.03977 20.6864H8.63008L8.8125 20.125Z" fill="black"/>
</svg>
