<?xml version="1.0" encoding="UTF-8" standalone="no"?>
<svg
        width="36"
        height="27"
        viewBox="0 0 36 27"
        fill="none"
        version="1.1"
        id="svg10"
        xmlns="http://www.w3.org/2000/svg"
        xmlns:svg="http://www.w3.org/2000/svg">
    <defs
            id="defs10" />
    <rect
            x="0.61217576"
            y="0.66568577"
            width="34.99012"
            height="25.061609"
            rx="3.5785346"
            fill="#ffffff"
            stroke="#000000"
            stroke-width="0.798098"
            id="rect1" />
    <mask
            id="mask0_1014_6455"
            style="mask-type:alpha"
            maskUnits="userSpaceOnUse"
            x="0"
            y="0"
            width="17"
            height="16">
        <path
                d="M0.0625 4.5C0.0625 2.29086 1.85336 0.5 4.0625 0.5H14.875C15.9796 0.5 16.875 1.39543 16.875 2.5V13.1875C16.875 14.2921 15.9796 15.1875 14.875 15.1875H4.0625C1.85336 15.1875 0.0625 13.3966 0.0625 11.1875V4.5Z"
                fill="#D9D9D9"
                id="path1" />
    </mask>
    <g
            mask="url(#mask0_1014_6455)"
            id="g5"
            transform="matrix(2.2076218,0,0,1.9206661,-1.0048453,-1.3897022)">
        <rect
                x="8.5010691"
                y="0.98387861"
                width="0.47103515"
                height="13.032244"
                fill="#000000"
                id="rect2"
                style="stroke-width:0.964819" />
        <rect
                x="7.3227792"
                y="-16.547287"
                width="0.52554959"
                height="15.95759"
                transform="rotate(90)"
                fill="#000000"
                id="rect3"
                style="stroke-width:0.939928" />
        <rect
                x="11.218081"
                y="-12.287365"
                width="0.46691591"
                height="19.061062"
                transform="matrix(0.58140657,0.81361318,-0.76886275,0.63941385,0,0)"
                fill="#000000"
                id="rect4"
                style="stroke-width:0.919645" />
        <rect
                x="-0.5847401"
                y="2.0853441"
                width="0.45477146"
                height="18.81674"
                transform="matrix(0.6169817,-0.7869775,0.77482992,0.63216976,0,0)"
                fill="#000000"
                id="rect5"
                style="stroke-width:0.864723" />
    </g>
</svg>
