<svg width="33" height="24" viewBox="0 0 33 24" fill="none" xmlns="http://www.w3.org/2000/svg">
<path d="M21.5489 1.08504C21.4442 3.97461 21.5532 6.86736 21.7214 9.7527C21.8895 12.6423 22.117 15.5276 22.2439 18.4193C22.3148 20.0378 22.355 21.6584 22.337 23.278C22.3338 23.5936 22.9547 23.5004 22.9579 23.2293C22.9907 20.3354 22.8373 17.4448 22.6522 14.5584C22.4681 11.671 22.2534 8.78457 22.1667 5.89287C22.118 4.27437 22.1106 2.65482 22.1688 1.03632C22.1804 0.721725 21.5585 0.813874 21.5489 1.08504Z" fill="black"/>
<path d="M0.351674 9.5123C4.42298 9.20407 8.49746 8.94245 12.5751 8.72743C16.6528 8.5124 20.7325 8.34398 24.8134 8.22217C27.1034 8.15438 29.3945 8.10036 31.6856 8.06223C31.8115 8.06011 32.0093 7.9669 32.0262 7.82602C32.0452 7.67031 31.8591 7.64277 31.748 7.64488C27.6661 7.71373 23.5842 7.83025 19.5045 7.99231C15.4247 8.15438 11.3471 8.36411 7.27152 8.62044C4.98465 8.7645 2.69884 8.92232 0.414083 9.09603C0.287152 9.10557 0.0914668 9.18713 0.0734849 9.33224C0.0555031 9.48159 0.240609 9.52078 0.351674 9.5123Z" fill="black"/>
<path d="M22.711 7.85236C22.5608 7.38313 22.6401 6.87576 22.931 6.47643C23.1986 6.10782 23.5984 5.84725 24.0226 5.69472C24.1442 5.65129 24.2701 5.61527 24.396 5.58667C24.4531 5.57396 24.5102 5.56124 24.5673 5.55171C24.58 5.54959 24.6023 5.5496 24.6149 5.54536C24.6816 5.54536 24.6805 5.53689 24.6097 5.51888C24.6075 5.51782 24.6065 5.51676 24.6044 5.51676C24.6044 5.51676 24.5737 5.69684 24.5621 5.73391C24.5208 5.85996 24.4658 5.9807 24.4013 6.09616C24.1442 6.55586 23.7328 6.93507 23.3382 7.27508C22.8527 7.69347 22.327 8.06526 21.7717 8.38621C21.6606 8.45082 21.5369 8.58428 21.631 8.71669C21.7167 8.8385 21.9314 8.8385 22.0499 8.77071C22.6507 8.42328 23.224 8.02926 23.7508 7.57485C24.2447 7.14904 24.745 6.67556 25.0412 6.08451C25.1533 5.85995 25.3289 5.47863 25.165 5.2403C24.9619 4.94478 24.4764 5.09202 24.194 5.16404C23.591 5.31763 23.0156 5.61951 22.5862 6.07392C22.0985 6.58976 21.8806 7.33228 22.0996 8.0176C22.1916 8.311 22.8041 8.14365 22.711 7.85236Z" fill="black"/>
<path d="M22.7529 8.12371C22.6513 7.74451 22.4493 7.39921 22.2198 7.08356C22.0135 6.79968 21.7903 6.52322 21.547 6.27006C21.0668 5.77011 20.4195 5.29346 19.7023 5.23944C19.2623 5.2066 18.8878 5.51802 18.7704 5.93218C18.6773 6.25736 18.7345 6.61431 18.8667 6.92149C19.147 7.57398 19.7235 8.05274 20.3835 8.29319C21.2033 8.59189 22.1447 8.57176 22.9454 8.22751C23.0649 8.17561 23.1728 8.01991 23.0861 7.89598C22.993 7.76357 22.7941 7.78689 22.6672 7.84197C21.6327 8.28684 20.2174 7.95106 19.5986 6.97657C19.4654 6.76685 19.3691 6.51898 19.348 6.269C19.3374 6.14613 19.349 6.01479 19.3966 5.90039C19.4209 5.84214 19.4516 5.79024 19.4939 5.74363C19.5362 5.69702 19.514 5.71503 19.5627 5.71397C19.6896 5.71079 19.8493 5.78283 19.9657 5.82943C20.0958 5.88028 20.2206 5.94276 20.3401 6.01691C20.5771 6.16414 20.7939 6.34633 20.9875 6.54758C21.2149 6.78379 21.4222 7.04118 21.6179 7.30387C21.8421 7.60575 22.041 7.92352 22.1383 8.28896C22.2198 8.58554 22.8333 8.42136 22.7529 8.12371Z" fill="black"/>
<path d="M22.1841 8.00281C21.7494 8.00493 21.321 8.24644 21.0671 8.59599C20.7932 8.97413 20.7233 9.43701 20.6937 9.89248C20.6652 10.3268 20.6557 10.7727 20.4367 11.1614C20.2749 11.4474 20.0041 11.6805 19.728 11.8372C19.3567 12.048 18.9749 12.1666 18.5528 12.2471C18.4312 12.2704 18.2651 12.3986 18.3021 12.5395C18.3434 12.6941 18.5444 12.6899 18.665 12.6677C19.4202 12.5247 20.1945 12.2132 20.7276 11.6391C21.0068 11.3383 21.1792 10.9687 21.2491 10.564C21.3263 10.1213 21.2924 9.6658 21.394 9.22622C21.4437 9.01014 21.5368 8.79829 21.6954 8.64046C21.8298 8.50594 21.963 8.45192 22.1312 8.45192C22.2645 8.45086 22.4528 8.35024 22.4686 8.20406C22.4845 8.04412 22.3036 8.00281 22.1841 8.00281Z" fill="black"/>
<path d="M21.9817 8.51342C22.3181 8.54096 22.6587 8.57698 22.9707 8.71468C23.3028 8.86085 23.4985 9.14472 23.5958 9.48685C23.7111 9.89359 23.746 10.3131 23.9248 10.7018C24.0909 11.063 24.3342 11.4051 24.6853 11.6064C25.1275 11.8606 25.668 11.8945 26.126 11.6625C26.2349 11.6074 26.3619 11.4708 26.2709 11.3458C26.1821 11.224 25.9726 11.2399 25.8542 11.3002C25.5728 11.4432 25.2396 11.3384 24.9857 11.135C24.7033 10.9083 24.5235 10.5641 24.4167 10.2241C24.2961 9.84064 24.2802 9.42648 24.1131 9.05787C23.9544 8.70832 23.6879 8.46469 23.3409 8.30793C22.9834 8.14586 22.5804 8.09821 22.1933 8.06643C22.0473 8.05478 21.8601 8.11091 21.7945 8.25496C21.7321 8.38949 21.8505 8.50283 21.9817 8.51342Z" fill="black"/>
<rect x="0.572266" y="0.5" width="30.9556" height="23" rx="4.5" stroke="black"/>
<path d="M3.63464 16.7061C3.50547 16.8358 3.63464 17.0948 3.89413 17.2251C4.15362 17.3554 4.15304 16.9656 4.0233 16.8364C3.89355 16.7073 3.76438 16.5769 3.63464 16.7061Z" fill="#ECB8CF"/>
<path d="M5.44465 15.0222C5.31548 15.152 5.18573 15.4109 5.31548 15.5412C5.40659 15.6323 5.57439 15.9293 5.57439 15.9293C5.57439 15.9293 5.77622 15.2782 5.61014 15.1502L5.44465 15.0222Z" fill="#ECB8CF"/>
<path d="M7.25865 13.468C7.12891 13.468 7.12891 13.7269 7.12891 13.8561C7.12891 13.9853 7.12891 14.1283 7.25865 14.1865C7.3884 14.2448 7.3884 13.8561 7.3884 13.8561C7.3884 13.8561 7.3884 13.468 7.25865 13.468Z" fill="#ECB8CF"/>
<path d="M8.80988 15.0222C8.68071 15.152 8.68071 15.152 8.68071 15.4109C8.68071 15.6698 8.55097 15.6698 8.68071 15.6698C8.74787 15.6652 8.8111 15.6365 8.8587 15.5889C8.90629 15.5413 8.93504 15.478 8.93963 15.4109V15.152L8.80988 15.0222Z" fill="#ECB8CF"/>
<path d="M10.3572 15.8662C10.2321 16.0582 10.1202 16.3437 10.2419 16.3956C10.3635 16.4475 10.3111 16.1072 10.4927 15.9285L10.3572 15.8662Z" fill="#ECB8CF"/>
<path d="M5.71852 20.6243C5.71852 20.6243 7.51517 19.9444 8.29141 20.4623C8.34538 20.4953 8.40134 20.525 8.45898 20.5511C8.50965 20.5747 8.54996 20.592 8.54996 20.592C8.93809 19.9444 9.58649 18.5195 10.0374 17.03C10.4255 15.7539 8.96457 18.5593 8.80852 18.6493C8.65246 18.7392 8.93809 16.8351 8.61504 16.3825C8.46416 16.1714 7.96433 18.3679 7.77372 18.5195C7.58312 18.6712 7.34011 14.4363 7.27907 14.517C6.99806 14.8924 7.06255 18.7139 6.54544 18.5841C6.28919 18.7139 5.77093 17.03 5.63963 16.2527C5.51064 16.5116 5.38626 19.0166 5.52446 19.0812C5.70586 19.1671 4.80062 18.2606 4.60656 18.1954C4.33246 18.1038 5.62063 20.5539 5.69549 20.6053" fill="#ECB8CF"/>
<path d="M7.09243 14.8677C7.11193 14.7125 7.12136 14.5563 7.12064 14.4C7.11417 14.2383 7.08649 14.0782 7.0383 13.9237C7.01321 13.8026 7.02463 13.6767 7.07112 13.5621C7.08506 13.5138 7.10438 13.4672 7.12871 13.4232C7.15098 13.3971 7.18214 13.3803 7.2161 13.3761C7.25007 13.3718 7.2844 13.3804 7.3124 13.4001C7.363 13.4411 7.39797 13.4983 7.41145 13.5621C7.44171 13.6776 7.4505 13.7976 7.43736 13.9162C7.42043 14.0422 7.39484 14.1668 7.36077 14.2893C7.33757 14.3889 7.33619 14.4924 7.35674 14.5926C7.37747 14.7195 7.38438 14.8486 7.39993 14.9761C7.40914 15.0533 7.42527 15.1295 7.43563 15.2067C7.45003 15.3117 7.46212 15.4172 7.47479 15.5227C7.48285 15.5919 7.49149 15.6617 7.49725 15.7315C7.50474 15.8307 7.54159 16.2828 7.5485 16.3537C7.55599 16.4361 7.56232 16.5186 7.57096 16.6011C7.5819 16.7112 7.59457 16.8219 7.60724 16.9321C7.61818 17.0312 7.62912 17.1299 7.64064 17.229C7.64812 17.2907 7.66021 17.3519 7.66425 17.4136C7.6677 17.4608 7.70974 17.7596 7.72183 17.8172C7.73623 17.8881 7.76617 18.1482 7.77078 18.1724C7.7876 18.2467 7.80836 18.3201 7.83297 18.3921C7.86694 18.3085 7.90207 18.2336 7.92856 18.1557C7.97232 18.0254 8.01148 17.8933 8.05121 17.7619C8.1088 17.5773 8.15659 17.3916 8.21533 17.2083C8.25737 17.0768 8.31092 16.9488 8.35641 16.819C8.40191 16.6893 8.43818 16.5717 8.48022 16.4483C8.49645 16.3916 8.51785 16.3366 8.54414 16.2839C8.57339 16.2206 8.58721 16.1512 8.58445 16.0815C8.58906 15.9875 8.59827 15.8941 8.60576 15.8001C8.61209 15.7257 8.61324 15.6133 8.61324 15.5389C8.61324 15.3394 8.63973 15.3255 8.66737 15.1929C8.67371 15.1658 8.73993 14.9939 8.84013 14.9974C8.86143 14.9974 8.89771 15.0066 8.90692 15.0234C8.93525 15.0672 8.95481 15.1162 8.96451 15.1675C8.976 15.3386 8.94349 15.5097 8.87007 15.6646C8.83128 15.7472 8.80248 15.8341 8.78427 15.9235C8.7715 16.0332 8.77054 16.144 8.78139 16.2539C8.79463 16.4269 8.79233 16.597 8.81191 16.77C8.82458 16.8854 8.81997 17.0376 8.82976 17.1506C8.83897 17.2538 8.84531 17.3553 8.84819 17.4585C8.84819 17.552 8.84819 17.6736 8.84819 17.767C8.84819 17.789 8.84819 17.9291 8.84819 17.966C8.84819 18.0957 8.84819 18.1442 8.84819 18.2745C8.84819 18.3241 8.85567 18.5669 8.85567 18.6159C8.81882 18.5703 8.90808 18.5865 8.85567 18.6159C8.8061 18.5732 8.76113 18.5255 8.7215 18.4734C8.69732 18.4117 8.71402 18.2676 8.70307 18.2018C8.70307 18.1966 8.68407 17.7647 8.68522 17.7123C8.68522 17.609 8.69041 17.4349 8.68522 17.3317C8.67889 17.2163 8.67946 17.1373 8.6668 17.0237C8.65413 16.9101 8.65413 16.7867 8.64376 16.6714C8.64031 16.6299 8.64376 16.5872 8.63455 16.5457C8.63455 16.529 8.61497 16.5146 8.6046 16.499L8.58848 16.5042C8.5499 16.612 8.51247 16.7204 8.47331 16.8283C8.43415 16.9361 8.39039 17.0451 8.35411 17.1552C8.28098 17.3749 8.21418 17.5969 8.1399 17.8161C8.08577 17.9735 8.02473 18.1286 7.96714 18.2843C7.92376 18.3946 7.87884 18.5042 7.83239 18.613C7.81478 18.6415 7.79412 18.668 7.77078 18.692C7.73392 18.6101 7.70225 18.5444 7.67404 18.4775C7.54965 18.1822 7.51798 17.8645 7.45867 17.5548C7.44036 17.4189 7.43017 17.282 7.42815 17.1448C7.42239 17.0572 7.41433 16.9718 7.41145 16.8819C7.40166 16.6022 7.39417 16.3225 7.38669 16.0429C7.3792 15.7632 7.33832 15.0297 7.3291 14.9536C7.32334 14.9173 7.32392 14.8798 7.31989 14.8429C7.31356 14.7898 7.30722 14.7362 7.29743 14.6831C7.29743 14.6716 7.27728 14.663 7.26691 14.6531C7.25482 14.6681 7.23524 14.6814 7.23236 14.6975C7.22027 14.7691 7.21566 14.8411 7.20357 14.9126C7.20357 14.9126 7.09646 16.4154 7.05097 16.8098C6.89894 18.1188 6.76823 18.4244 6.68588 18.5755C6.50334 18.9105 6.68588 18.7277 6.29085 18.4233C6.24248 18.3864 6.34843 18.3016 6.44287 18.4844C6.67724 18.9544 6.77686 17.8755 6.89894 16.8121C6.9381 16.4454 7.09243 14.8677 7.09243 14.8677ZM6.47051 18.5438C6.46073 18.5865 6.41293 18.5438 6.37953 18.5132C6.26293 18.4001 6.17677 18.2592 6.12904 18.1038C6.06051 17.8928 5.98911 17.6834 5.92461 17.4695C5.8509 17.2273 5.78238 16.984 5.71327 16.7406C5.69773 16.6864 5.69197 16.6299 5.67642 16.5763C5.66375 16.5336 5.6436 16.4938 5.62229 16.4425C5.61423 16.4615 5.60617 16.4713 5.60617 16.4811C5.60329 16.563 5.60271 16.6455 5.59983 16.7274C5.59062 17.0191 5.58025 17.3109 5.57162 17.6027C5.56183 17.9187 5.55204 18.237 5.54686 18.5513C5.54686 18.6833 5.55607 18.8148 5.55722 18.9469C5.55486 18.9892 5.54909 19.0312 5.53995 19.0726L5.52325 19.0824C5.39713 18.9734 5.27218 18.8627 5.14491 18.7554C5.06257 18.6868 4.97504 18.6245 4.89212 18.5565C4.8092 18.4884 4.71648 18.4071 4.62895 18.3322C4.62011 18.3265 4.61064 18.3218 4.60074 18.3183C4.62205 18.3829 4.63702 18.4406 4.65832 18.4948C4.72243 18.6485 4.78846 18.8023 4.85641 18.9561C4.92667 19.1153 4.99692 19.2744 5.07466 19.4295C5.12879 19.5374 5.19847 19.6371 5.25605 19.7426C5.31364 19.8482 5.36662 19.9612 5.42305 20.0702C5.44378 20.11 5.46969 20.1474 5.491 20.1855C5.51921 20.2391 5.5434 20.2956 5.57277 20.3493C5.61653 20.4294 5.66375 20.5084 5.70924 20.5874C5.71632 20.5986 5.71937 20.6118 5.71788 20.6249C5.70892 20.6196 5.70061 20.6132 5.69312 20.6059C5.47084 20.3222 5.24684 20.039 5.08618 19.7127C5.01535 19.5696 4.65487 18.8575 4.54258 18.647C4.4038 18.3869 4.34391 18.1038 4.25465 17.8282C4.23585 17.7752 4.20756 17.7262 4.17116 17.6834C4.04811 17.5228 3.91026 17.3742 3.75942 17.2394C3.70782 17.1917 3.66219 17.1378 3.62353 17.0791C3.58667 17.0293 3.56871 16.968 3.57285 16.9061C3.57631 16.8622 3.57631 16.818 3.57285 16.7741C3.57298 16.7397 3.58074 16.7059 3.59558 16.675C3.61043 16.644 3.63197 16.6168 3.65865 16.5953C3.67257 16.5821 3.69031 16.5736 3.70933 16.5711C3.8792 16.5486 3.98631 16.6103 4.07038 16.7591C4.1344 16.8693 4.17992 16.9893 4.20513 17.1143C4.22413 17.2123 4.23507 17.3121 4.26271 17.4078C4.28796 17.4842 4.31935 17.5585 4.35658 17.6298C4.39055 17.703 4.42568 17.7763 4.46541 17.8466C4.55467 18.0017 4.69575 18.1113 4.81611 18.2387C4.88981 18.3166 4.96064 18.3973 5.03781 18.4694C5.15298 18.5801 5.27333 18.6868 5.39138 18.7946C5.40656 18.8059 5.42253 18.8162 5.43917 18.8252C5.44551 18.8177 5.45184 18.8137 5.45184 18.8102C5.4553 18.4988 5.4576 18.1874 5.46105 17.8766C5.46105 17.778 5.46911 17.6794 5.47199 17.5808C5.47737 17.3982 5.48217 17.2152 5.48639 17.0318C5.4933 16.7579 5.49791 16.4834 5.50827 16.2095C5.51176 16.1194 5.48251 16.0311 5.42593 15.961C5.32453 15.8319 5.26004 15.6776 5.23935 15.5147C5.23187 15.4501 5.22784 15.3849 5.22093 15.3203C5.21521 15.209 5.24181 15.0985 5.29751 15.002C5.31189 14.9796 5.33126 14.9608 5.35409 14.9471C5.37692 14.9334 5.40261 14.9252 5.42914 14.923C5.45568 14.9209 5.48234 14.925 5.50705 14.9349C5.53177 14.9448 5.55386 14.9602 5.57162 14.9801C5.6422 15.0863 5.67839 15.2118 5.67527 15.3394C5.68341 15.5316 5.68014 15.7242 5.66548 15.916C5.65622 16.0742 5.67793 16.2327 5.7294 16.3825C5.81462 16.6507 5.89524 16.9205 5.97816 17.1898C6.02826 17.353 6.08067 17.5156 6.13019 17.6788C6.16819 17.8051 6.20159 17.9331 6.24133 18.0588C6.26321 18.1292 6.29315 18.1966 6.32079 18.2647L6.47051 18.5438ZM5.31306 15.412C5.32348 15.4595 5.33912 15.5058 5.3597 15.5498C5.40232 15.6236 5.45587 15.6917 5.50597 15.7615C5.51676 15.7743 5.5285 15.7862 5.5411 15.7972C5.55165 15.7824 5.56071 15.7665 5.56816 15.7499C5.57327 15.7311 5.57598 15.7118 5.57622 15.6923C5.58083 15.6415 5.58716 15.5908 5.58832 15.54C5.58832 15.4247 5.6125 15.3128 5.54282 15.209C5.51461 15.1675 5.48524 15.1387 5.43169 15.1479C5.40857 15.1502 5.38692 15.1603 5.37028 15.1766C5.35365 15.1928 5.34301 15.2142 5.34013 15.2373C5.33091 15.2909 5.32458 15.3411 5.31364 15.4143L5.31306 15.412ZM3.64771 16.8513C3.62871 16.9494 3.68341 17.0041 3.7577 17.0537C3.81528 17.0935 3.86826 17.1448 3.92412 17.1892C3.93018 17.1947 3.93729 17.1989 3.945 17.2016C3.95272 17.2043 3.96089 17.2054 3.96903 17.2048C3.97644 17.2008 3.9828 17.1951 3.9876 17.1882C3.9924 17.1813 3.99551 17.1734 3.99667 17.165C4.00577 17.0931 3.99164 17.0202 3.95637 16.9569C3.91663 16.8905 3.8769 16.8248 3.83659 16.7591C3.82161 16.7388 3.80127 16.7231 3.77786 16.7139C3.75445 16.7046 3.72891 16.7021 3.70414 16.7066C3.65635 16.7233 3.64656 16.7643 3.64656 16.8092L3.64771 16.8513ZM7.36999 13.8799C7.36834 13.805 7.36102 13.7304 7.34811 13.6567C7.33716 13.599 7.30607 13.5719 7.26173 13.5765C7.25024 13.5777 7.23912 13.5812 7.22907 13.5869C7.21903 13.5926 7.21028 13.6004 7.2034 13.6097C7.19651 13.6189 7.19164 13.6296 7.18909 13.6408C7.18654 13.6521 7.18637 13.6638 7.18859 13.6752C7.1932 13.7749 7.20242 13.8741 7.21336 13.9733C7.21394 13.9835 7.21656 13.9936 7.22106 14.0028C7.22556 14.012 7.23186 14.0203 7.23958 14.027C7.24731 14.0338 7.2563 14.039 7.26603 14.0422C7.27577 14.0455 7.28605 14.0467 7.29628 14.0459C7.34235 14.0459 7.3625 14.0096 7.36884 13.9692C7.37182 13.9395 7.3722 13.9096 7.36999 13.8799ZM8.91038 15.3099C8.9122 15.2796 8.9122 15.2492 8.91038 15.2188C8.91038 15.2062 8.89598 15.1612 8.88619 15.1612C8.8764 15.1612 8.84128 15.1508 8.83149 15.1612C8.80983 15.189 8.79165 15.2194 8.77736 15.2517C8.71171 15.3451 8.72323 15.3786 8.72323 15.5233C8.71805 15.5452 8.73763 15.5735 8.74108 15.596C8.74108 15.6092 8.76699 15.6242 8.77793 15.6277C8.78887 15.6311 8.80788 15.6173 8.81364 15.6063C8.86028 15.5089 8.92823 15.4161 8.91038 15.3099Z" fill="black"/>
<path d="M8.70361 18.7706C8.71109 18.4713 8.71109 18.6177 8.78019 18.42L8.84239 18.4286L8.85218 18.4949L8.86542 18.4995C8.92991 18.3969 8.99614 18.2954 9.0589 18.1916C9.15737 18.0284 9.23799 17.852 9.35431 17.7038C9.5167 17.4973 9.65087 17.273 9.80635 17.0625C9.90367 16.931 10.0137 16.8019 10.0505 16.6341C10.081 16.4957 10.1121 16.3573 10.138 16.2177C10.1602 16.1018 10.2044 15.9912 10.2682 15.8919C10.2779 15.8744 10.2917 15.8595 10.3083 15.8484C10.3249 15.8373 10.3439 15.8303 10.3638 15.828C10.3836 15.8257 10.4037 15.8281 10.4225 15.8351C10.4412 15.8421 10.458 15.8535 10.4715 15.8683C10.4889 15.8853 10.5012 15.9071 10.5068 15.9308C10.5124 15.9546 10.5112 15.9796 10.5031 16.0026C10.461 16.1874 10.3863 16.3631 10.2826 16.5216C10.2587 16.5663 10.2379 16.6125 10.2204 16.66C10.1588 16.7961 10.0868 16.9287 10.0367 17.0689C9.94053 17.3387 9.85933 17.6138 9.76777 17.8848C9.71364 18.0446 9.6526 18.2031 9.59502 18.36C9.49655 18.616 9.39808 18.8715 9.29385 19.1252C9.24087 19.2532 9.1758 19.3766 9.11706 19.5023C8.99671 19.7584 8.88039 20.0155 8.75486 20.2687C8.70099 20.3653 8.64177 20.4589 8.5775 20.5489C8.57462 20.5541 8.56713 20.5564 8.55273 20.5536C8.57293 20.5082 8.59581 20.4641 8.62126 20.4215C8.70348 20.2973 8.7702 20.1635 8.81993 20.023C8.83893 19.9717 8.91321 19.8437 8.91955 19.8258C8.94546 19.7537 8.97425 19.6822 9.00132 19.6102C9.03875 19.5081 9.07272 19.4049 9.11649 19.3045C9.17407 19.1638 9.24202 19.0272 9.29903 18.8859C9.35143 18.7561 9.39405 18.6218 9.44242 18.4903C9.52246 18.2729 9.60884 18.0578 9.68255 17.8381C9.72286 17.7187 9.74013 17.5925 9.77353 17.4696C9.79023 17.4062 9.81442 17.3451 9.83975 17.2707C9.76645 17.3326 9.7075 17.4097 9.667 17.4967C9.66355 17.5047 9.65951 17.5124 9.65491 17.5198C9.49885 17.7274 9.34165 17.9344 9.18674 18.1426C9.15334 18.1876 9.12916 18.24 9.09979 18.2867C9.01341 18.4148 8.92608 18.5422 8.83778 18.6691C8.82406 18.6947 8.80496 18.717 8.7818 18.7345C8.75864 18.7521 8.73196 18.7643 8.70361 18.7706ZM10.4311 15.9796C10.4139 15.9565 10.3989 15.9219 10.3822 15.9185C10.3685 15.9192 10.3552 15.9235 10.3435 15.9307C10.3319 15.938 10.3222 15.948 10.3154 15.96C10.2866 16.0511 10.2653 16.1445 10.2452 16.2379C10.2423 16.2523 10.2567 16.2708 10.263 16.2875C10.2768 16.2783 10.2958 16.2725 10.3027 16.2598C10.3298 16.2125 10.3534 16.1635 10.3764 16.1145C10.3995 16.0655 10.407 16.0315 10.4283 15.9796H10.4311Z" fill="black"/>
<path d="M8.43939 20.5626C8.37662 20.5511 8.31328 20.5424 8.25109 20.5274C8.04954 20.4796 7.84799 20.4219 7.6476 20.3815C7.1981 20.2985 6.73492 20.3308 6.30127 20.4755C6.16422 20.5176 6.02313 20.5476 5.88378 20.5816C5.86362 20.5853 5.84322 20.5877 5.82274 20.5885L5.81641 20.5764C5.83567 20.5581 5.85648 20.5415 5.8786 20.5268C5.9857 20.4692 6.09512 20.4115 6.20107 20.3481C6.30425 20.2955 6.41224 20.253 6.52355 20.2212C6.76252 20.137 7.00783 20.1376 7.25314 20.1451C7.38923 20.1525 7.52424 20.1734 7.65624 20.2074C7.81773 20.2427 7.97664 20.2889 8.13189 20.3458C8.23507 20.3936 8.33391 20.4503 8.4273 20.5153C8.43651 20.5211 8.44112 20.5343 8.44803 20.5441L8.43939 20.5626Z" fill="black"/>
<path d="M8.7865 18.4576C8.858 18.4709 8.73633 18.2985 8.73633 18.2985L8.7865 18.4576Z" fill="black"/>
<path d="M8.72744 18.2069L8.70898 18.6158L8.84392 18.3788L8.72744 18.2069Z" fill="black"/>
<path d="M6.23047 18.3248C6.32216 18.5336 6.50092 18.6529 6.56031 18.7181C6.63643 18.8028 6.38155 18.4142 6.32216 18.3542C6.26276 18.2942 6.23047 18.3248 6.23047 18.3248Z" fill="black"/>
</svg>
