<svg width="37" height="27" viewBox="0 0 37 27" fill="none" xmlns="http://www.w3.org/2000/svg">
  <rect x="0.579688" y="0.525" width="35.45" height="25.95" rx="3.6" fill="white" stroke="black" stroke-width="0.8"/>
  <mask id="mask0_4337_3562" style="mask-type:alpha" maskUnits="userSpaceOnUse" x="0" y="0" width="18" height="16">
    <path d="M0.242188 4.5C0.242188 2.29086 2.03305 0.5 4.24219 0.5H15.0547C16.1593 0.5 17.0547 1.39543 17.0547 2.5V13.1875C17.0547 14.2921 16.1593 15.1875 15.0547 15.1875H4.24219C2.03305 15.1875 0.242188 13.3966 0.242188 11.1875V4.5Z" fill="#D9D9D9"/>
  </mask>
  <g mask="url(#mask0_4337_3562)">
    <rect x="8.42969" y="0.5" width="0.75" height="14" fill="black"/>
    <rect x="18.0547" y="6.875" width="0.75" height="18.0625" transform="rotate(90 18.0547 6.875)" fill="black"/>
    <rect x="17.4736" y="0.0895996" width="0.75" height="23.2529" transform="rotate(52.3714 17.4736 0.0895996)" fill="black"/>
    <rect x="1.37891" y="1.90649" width="0.75" height="21.7944" transform="rotate(-51.348 1.37891 1.90649)" fill="black"/>
  </g>
  <path d="M26.8672 6.5625L27.0496 7.12392H27.6399L27.1623 7.4709L27.3448 8.03233L26.8672 7.68535L26.3896 8.03233L26.572 7.4709L26.0945 7.12392H26.6848L26.8672 6.5625Z" fill="black"/>
  <path d="M31.3672 10.8125L31.5496 11.3739H32.1399L31.6623 11.7209L31.8448 12.2823L31.3672 11.9353L30.8896 12.2823L31.072 11.7209L30.5945 11.3739H31.1848L31.3672 10.8125Z" fill="black"/>
  <path d="M22.4922 11L22.6746 11.5614H23.2649L22.7873 11.9084L22.9698 12.4698L22.4922 12.1228L22.0146 12.4698L22.197 11.9084L21.7195 11.5614H22.3098L22.4922 11Z" fill="black"/>
  <path d="M26.8672 18.5L27.0496 19.0614H27.6399L27.1623 19.4084L27.3448 19.9698L26.8672 19.6228L26.3896 19.9698L26.572 19.4084L26.0945 19.0614H26.6848L26.8672 18.5Z" fill="black"/>
</svg>
