<svg width="36" height="27" viewBox="0 0 36 27" fill="none" xmlns="http://www.w3.org/2000/svg">
<rect x="0.4" y="0.525" width="35.2" height="25.9" rx="3.6" fill="white" stroke="black" stroke-width="0.8"/>
<path d="M5.08596 1.27909L5.21138 1.66704H5.61724L5.2889 1.90681L5.41431 2.29476L5.08596 2.05499L4.75762 2.29476L4.88303 1.90681L4.55468 1.66704H4.96055L5.08596 1.27909Z" fill="black"/>
<path d="M7.57034 1.27909L7.69576 1.66704H8.10162L7.77327 1.90681L7.89869 2.29476L7.57034 2.05499L7.24199 2.29476L7.36741 1.90681L7.03906 1.66704H7.44492L7.57034 1.27909Z" fill="black"/>
<path d="M9.98831 1.27909L10.1137 1.66704H10.5196L10.1912 1.90681L10.3167 2.29476L9.98831 2.05499L9.65996 2.29476L9.78538 1.90681L9.45703 1.66704H9.86289L9.98831 1.27909Z" fill="black"/>
<path d="M12.5352 1.27909L12.6606 1.66704H13.0665L12.7381 1.90681L12.8635 2.29476L12.5352 2.05499L12.2068 2.29476L12.3323 1.90681L12.0039 1.66704H12.4098L12.5352 1.27909Z" fill="black"/>
<path d="M15.0157 1.27909L15.1411 1.66704H15.5469L15.2186 1.90681L15.344 2.29476L15.0157 2.05499L14.6873 2.29476L14.8127 1.90681L14.4844 1.66704H14.8902L15.0157 1.27909Z" fill="black"/>
<path d="M16.2266 2.74509L16.352 3.13305H16.7579L16.4295 3.37281L16.5549 3.76076L16.2266 3.521L15.8982 3.76076L16.0237 3.37281L15.6953 3.13305H16.1012L16.2266 2.74509Z" fill="black"/>
<path d="M13.7735 2.74509L13.8989 3.13305H14.3047L13.9764 3.37281L14.1018 3.76076L13.7735 3.521L13.4451 3.76076L13.5705 3.37281L13.2422 3.13305H13.648L13.7735 2.74509Z" fill="black"/>
<path d="M11.2305 2.74509L11.3559 3.13305H11.7618L11.4334 3.37281L11.5588 3.76076L11.2305 3.521L10.9021 3.76076L11.0276 3.37281L10.6992 3.13305H11.1051L11.2305 2.74509Z" fill="black"/>
<path d="M8.65628 2.74509L8.7817 3.13305H9.18756L8.85921 3.37281L8.98463 3.76076L8.65628 3.521L8.32793 3.76076L8.45335 3.37281L8.125 3.13305H8.53086L8.65628 2.74509Z" fill="black"/>
<path d="M6.20315 2.74509L6.32857 3.13305H6.73443L6.40608 3.37281L6.5315 3.76076L6.20315 3.521L5.8748 3.76076L6.00022 3.37281L5.67187 3.13305H6.07773L6.20315 2.74509Z" fill="black"/>
<path d="M3.56643 2.74509L3.69185 3.13305H4.09771L3.76936 3.37281L3.89478 3.76076L3.56643 3.521L3.23808 3.76076L3.3635 3.37281L3.03515 3.13305H3.44102L3.56643 2.74509Z" fill="black"/>
<path d="M2.38675 4.24229L2.51216 4.63024H2.91803L2.58968 4.87001L2.71509 5.25796L2.38675 5.01819L2.0584 5.25796L2.18381 4.87001L1.85547 4.63024H2.26133L2.38675 4.24229Z" fill="black"/>
<path d="M4.92971 4.24229L5.05513 4.63024H5.46099L5.13265 4.87001L5.25806 5.25796L4.92971 5.01819L4.60137 5.25796L4.72678 4.87001L4.39843 4.63024H4.8043L4.92971 4.24229Z" fill="black"/>
<path d="M7.44534 4.24229L7.57076 4.63024H7.97662L7.64827 4.87001L7.77369 5.25796L7.44534 5.01819L7.11699 5.25796L7.24241 4.87001L6.91406 4.63024H7.31992L7.44534 4.24229Z" fill="black"/>
<path d="M9.92581 4.24229L10.0512 4.63024H10.4571L10.1287 4.87001L10.2542 5.25796L9.92581 5.01819L9.59746 5.25796L9.72288 4.87001L9.39453 4.63024H9.80039L9.92581 4.24229Z" fill="black"/>
<path d="M12.3477 4.24229L12.4731 4.63024H12.879L12.5506 4.87001L12.676 5.25796L12.3477 5.01819L12.0193 5.25796L12.1448 4.87001L11.8164 4.63024H12.2223L12.3477 4.24229Z" fill="black"/>
<path d="M14.8633 4.24229L14.9887 4.63024H15.3946L15.0662 4.87001L15.1917 5.25796L14.8633 5.01819L14.535 5.25796L14.6604 4.87001L14.332 4.63024H14.7379L14.8633 4.24229Z" fill="black"/>
<path d="M15.9805 5.55234L16.1059 5.94029H16.5118L16.1834 6.18006L16.3088 6.56801L15.9805 6.32824L15.6521 6.56801L15.7776 6.18006L15.4492 5.94029H15.8551L15.9805 5.55234Z" fill="black"/>
<path d="M13.5274 5.55234L13.6528 5.94029H14.0587L13.7303 6.18006L13.8557 6.56801L13.5274 6.32824L13.199 6.56801L13.3244 6.18006L12.9961 5.94029H13.402L13.5274 5.55234Z" fill="black"/>
<path d="M11.043 5.55234L11.1684 5.94029H11.5743L11.2459 6.18006L11.3713 6.56801L11.043 6.32824L10.7146 6.56801L10.8401 6.18006L10.5117 5.94029H10.9176L11.043 5.55234Z" fill="black"/>
<path d="M8.62503 5.55234L8.75045 5.94029H9.15631L8.82796 6.18006L8.95338 6.56801L8.62503 6.32824L8.29668 6.56801L8.4221 6.18006L8.09375 5.94029H8.49961L8.62503 5.55234Z" fill="black"/>
<path d="M6.14065 5.55234L6.26607 5.94029H6.67193L6.34358 6.18006L6.469 6.56801L6.14065 6.32824L5.8123 6.56801L5.93772 6.18006L5.60937 5.94029H6.01523L6.14065 5.55234Z" fill="black"/>
<path d="M3.62893 5.55234L3.75435 5.94029H4.16021L3.83186 6.18006L3.95728 6.56801L3.62893 6.32824L3.30058 6.56801L3.426 6.18006L3.09765 5.94029H3.50352L3.62893 5.55234Z" fill="black"/>
<path d="M2.32425 7.08073L2.44966 7.46868H2.85553L2.52718 7.70845L2.65259 8.0964L2.32425 7.85663L1.9959 8.0964L2.12131 7.70845L1.79297 7.46868H2.19883L2.32425 7.08073Z" fill="black"/>
<path d="M4.80471 7.08073L4.93013 7.46868H5.33599L5.00765 7.70845L5.13306 8.0964L4.80471 7.85663L4.47637 8.0964L4.60178 7.70845L4.27343 7.46868H4.6793L4.80471 7.08073Z" fill="black"/>
<path d="M7.38284 7.08073L7.50826 7.46868H7.91412L7.58577 7.70845L7.71119 8.0964L7.38284 7.85663L7.05449 8.0964L7.17991 7.70845L6.85156 7.46868H7.25742L7.38284 7.08073Z" fill="black"/>
<path d="M9.83596 7.08073L9.96138 7.46868H10.3672L10.0389 7.70845L10.1643 8.0964L9.83596 7.85663L9.50762 8.0964L9.63303 7.70845L9.30468 7.46868H9.71055L9.83596 7.08073Z" fill="black"/>
<path d="M12.3477 7.08073L12.4731 7.46868H12.879L12.5506 7.70845L12.676 8.0964L12.3477 7.85663L12.0193 8.0964L12.1448 7.70845L11.8164 7.46868H12.2223L12.3477 7.08073Z" fill="black"/>
<path d="M14.8321 7.08073L14.9575 7.46868H15.3633L15.035 7.70845L15.1604 8.0964L14.8321 7.85663L14.5037 8.0964L14.6291 7.70845L14.3008 7.46868H14.7066L14.8321 7.08073Z" fill="black"/>
<path d="M16.1016 8.39077L16.227 8.77872H16.6329L16.3045 9.01849L16.4299 9.40644L16.1016 9.16667L15.7732 9.40644L15.8987 9.01849L15.5703 8.77872H15.9762L16.1016 8.39077Z" fill="black"/>
<path d="M13.5899 8.39077L13.7153 8.77872H14.1212L13.7928 9.01849L13.9182 9.40644L13.5899 9.16667L13.2615 9.40644L13.3869 9.01849L13.0586 8.77872H13.4645L13.5899 8.39077Z" fill="black"/>
<path d="M11.0742 8.39077L11.1997 8.77872H11.6055L11.2772 9.01849L11.4026 9.40644L11.0742 9.16667L10.7459 9.40644L10.8713 9.01849L10.543 8.77872H10.9488L11.0742 8.39077Z" fill="black"/>
<path d="M8.62503 8.39077L8.75045 8.77872H9.15631L8.82796 9.01849L8.95338 9.40644L8.62503 9.16667L8.29668 9.40644L8.4221 9.01849L8.09375 8.77872H8.49961L8.62503 8.39077Z" fill="black"/>
<path d="M6.1094 8.39077L6.23482 8.77872H6.64068L6.31233 9.01849L6.43775 9.40644L6.1094 9.16667L5.78105 9.40644L5.90647 9.01849L5.57812 8.77872H5.98398L6.1094 8.39077Z" fill="black"/>
<path d="M3.65628 8.39077L3.7817 8.77872H4.18756L3.85921 9.01849L3.98463 9.40644L3.65628 9.16667L3.32793 9.40644L3.45335 9.01849L3.125 8.77872H3.53086L3.65628 8.39077Z" fill="black"/>
<path d="M2.26175 9.82558L2.38716 10.2135H2.79303L2.46468 10.4533L2.59009 10.8413L2.26175 10.6015L1.9334 10.8413L2.05881 10.4533L1.73047 10.2135H2.13633L2.26175 9.82558Z" fill="black"/>
<path d="M4.86721 9.82558L4.99263 10.2135H5.39849L5.07015 10.4533L5.19556 10.8413L4.86721 10.6015L4.53887 10.8413L4.66428 10.4533L4.33593 10.2135H4.7418L4.86721 9.82558Z" fill="black"/>
<path d="M7.38284 9.82558L7.50826 10.2135H7.91412L7.58577 10.4533L7.71119 10.8413L7.38284 10.6015L7.05449 10.8413L7.17991 10.4533L6.85156 10.2135H7.25742L7.38284 9.82558Z" fill="black"/>
<path d="M9.77346 9.82558L9.89888 10.2135H10.3047L9.9764 10.4533L10.1018 10.8413L9.77346 10.6015L9.44512 10.8413L9.57053 10.4533L9.24218 10.2135H9.64805L9.77346 9.82558Z" fill="black"/>
<path d="M12.3477 9.82558L12.4731 10.2135H12.879L12.5506 10.4533L12.676 10.8413L12.3477 10.6015L12.0193 10.8413L12.1448 10.4533L11.8164 10.2135H12.2223L12.3477 9.82558Z" fill="black"/>
<path d="M14.7383 9.82558L14.8637 10.2135H15.2696L14.9412 10.4533L15.0667 10.8413L14.7383 10.6015L14.41 10.8413L14.5354 10.4533L14.207 10.2135H14.6129L14.7383 9.82558Z" fill="black"/>
<path d="M15.8867 10.9797L16.0122 11.3676H16.418L16.0897 11.6074L16.2151 11.9953L15.8867 11.7556L15.5584 11.9953L15.6838 11.6074L15.3555 11.3676H15.7613L15.8867 10.9797Z" fill="black"/>
<path d="M13.4961 10.9797L13.6215 11.3676H14.0274L13.6991 11.6074L13.8245 11.9953L13.4961 11.7556L13.1678 11.9953L13.2932 11.6074L12.9648 11.3676H13.3707L13.4961 10.9797Z" fill="black"/>
<path d="M10.9219 10.9797L11.0473 11.3676H11.4532L11.1248 11.6074L11.2503 11.9953L10.9219 11.7556L10.5936 11.9953L10.719 11.6074L10.3906 11.3676H10.7965L10.9219 10.9797Z" fill="black"/>
<path d="M8.56253 10.9797L8.68795 11.3676H9.09381L8.76546 11.6074L8.89088 11.9953L8.56253 11.7556L8.23418 11.9953L8.3596 11.6074L8.03125 11.3676H8.43711L8.56253 10.9797Z" fill="black"/>
<path d="M6.1719 10.9797L6.29732 11.3676H6.70318L6.37483 11.6074L6.50025 11.9953L6.1719 11.7556L5.84355 11.9953L5.96897 11.6074L5.64062 11.3676H6.04648L6.1719 10.9797Z" fill="black"/>
<path d="M3.65628 10.9797L3.7817 11.3676H4.18756L3.85921 11.6074L3.98463 11.9953L3.65628 11.7556L3.32793 11.9953L3.45335 11.6074L3.125 11.3676H3.53086L3.65628 10.9797Z" fill="black"/>
<path d="M0.483594 4.18739C0.483594 2.14393 2.14014 0.487386 4.18359 0.487386H18.3801V11.9741C18.3801 12.913 17.619 13.6741 16.6801 13.6741H0.483594V4.18739Z" stroke="black" stroke-width="0.6"/>
<rect x="18.5547" y="3.05701" width="16.9448" height="0.798505" fill="black"/>
<rect x="18.5547" y="6.4257" width="16.9448" height="0.798505" fill="black"/>
<rect x="18.5547" y="9.66962" width="16.9448" height="0.798505" fill="black"/>
<rect x="0.183594" y="16.0951" width="35.3172" height="0.798505" fill="black"/>
<rect x="0.183594" y="19.5262" width="35.3172" height="0.798505" fill="black"/>
<rect x="0.183594" y="22.7077" width="35.3172" height="0.798505" fill="black"/>
<path d="M17.9664 12.8668L35.5008 12.9135V13.712H17.0664L17.9664 12.8668Z" fill="black"/>
</svg>
